<svg width="20" height="20" viewBox="0 0 20 20" fill="none" xmlns="http://www.w3.org/2000/svg">
<path d="M17.5 6.11417H14.225L14.535 2.55417C14.565 2.21083 14.31 1.90833 13.9667 1.8775C13.6192 1.8525 13.32 2.1025 13.29 2.44667L12.9708 6.11333H7.70417L8.0125 2.555C8.04333 2.21083 7.7875 1.90833 7.44583 1.8775C7.09583 1.8525 6.79833 2.1025 6.76833 2.44667L6.45 6.11333H3.15167C2.80667 6.11333 2.52667 6.39417 2.52667 6.73833C2.52667 7.0825 2.80667 7.36333 3.15167 7.36333H6.34167L5.88333 12.6358H2.5C2.155 12.6358 1.875 12.9158 1.875 13.2608C1.875 13.6058 2.155 13.8858 2.5 13.8858H5.775L5.465 17.4458C5.435 17.7892 5.69 18.0917 6.03333 18.1225L6.08833 18.125C6.40917 18.125 6.68167 17.8792 6.71 17.5533L7.02917 13.8867H12.2958L11.9875 17.445C11.9575 17.7892 12.2125 18.0917 12.5558 18.1225L12.6108 18.125C12.9317 18.125 13.2042 17.8792 13.2325 17.5533L13.5508 13.8867H16.8483C17.1925 13.8867 17.4733 13.6058 17.4733 13.2617C17.4733 12.9175 17.1925 12.6367 16.8483 12.6367H13.6583L14.1167 7.36417H17.5C17.845 7.36417 18.125 7.08417 18.125 6.73917C18.125 6.39417 17.845 6.11417 17.5 6.11417ZM12.4042 12.6358H7.1375L7.59583 7.36417H12.8625L12.4042 12.6358Z" fill="black"/>
</svg>
