<svg width="20" height="20" viewBox="0 0 20 20" fill="none" xmlns="http://www.w3.org/2000/svg">
<path d="M17.1542 7.89C17.7042 7.89 18.1542 7.44167 18.1542 6.89C18.1542 6.33833 17.7042 5.89 17.1542 5.89H14.4708L14.7292 2.93417C14.7517 2.66917 14.6708 2.40917 14.4983 2.205C14.3267 2.00083 14.0858 1.875 13.8133 1.85083C13.2717 1.82167 12.7842 2.21083 12.7358 2.76167L12.4642 5.89H8.25001L8.50668 2.93583C8.55668 2.3875 8.14835 1.90083 7.59251 1.85083C7.03835 1.80917 6.56335 2.20917 6.51501 2.76083L6.24418 5.88917H3.46918C2.91668 5.88917 2.46918 6.3375 2.46918 6.88917C2.46918 7.44083 2.91751 7.88917 3.46918 7.88917H6.07085L5.70418 12.1092H2.84668C2.29501 12.1092 1.84668 12.5592 1.84668 13.1092C1.84668 13.6592 2.29501 14.1108 2.84668 14.1108H5.53001L5.27168 17.0675C5.22418 17.615 5.63168 18.1008 6.18001 18.1508L6.26835 18.155C6.79001 18.155 7.21835 17.7617 7.26418 17.24L7.53668 14.1125H11.75L11.4933 17.0658C11.4433 17.6142 11.8517 18.1008 12.4017 18.1508L12.49 18.155C13.0042 18.155 13.4417 17.7533 13.4858 17.24L13.7567 14.1125H16.5317C17.0817 14.1125 17.5317 13.6625 17.5317 13.1125C17.5317 12.5625 17.0817 12.1108 16.5317 12.1108H13.93L14.2967 7.89083H17.155L17.1542 7.89ZM12.2892 7.89L11.9225 12.1092H7.71085L8.07751 7.89083H12.29L12.2892 7.89Z" fill="black"/>
</svg>
