<svg width="20" height="20" viewBox="0 0 20 20" fill="none" xmlns="http://www.w3.org/2000/svg">
<path d="M18.8167 6.125L10.3958 1.58083C10.1483 1.4475 9.85085 1.4475 9.60418 1.58083L1.18752 6.125C0.782515 6.345 0.631682 6.85 0.850015 7.255C1.00002 7.53417 1.28752 7.6925 1.58335 7.6925C1.71668 7.6925 1.85335 7.66083 1.97918 7.5925L2.59085 7.2625L3.91585 16.6375C4.09585 17.6492 5.00751 18.3558 6.13251 18.3558H13.8675C14.9925 18.3558 15.9042 17.6492 16.0858 16.6158L17.4092 7.26167L18.0233 7.59334C18.4275 7.8125 18.9333 7.66167 19.1517 7.25667C19.3708 6.85167 19.2183 6.34584 18.815 6.1275L18.8167 6.125ZM10 12.8625C8.50418 12.8625 7.29168 11.65 7.29168 10.1542C7.29168 8.65833 8.50418 7.44584 10 7.44584C11.4958 7.44584 12.7083 8.65833 12.7083 10.1542C12.7083 11.65 11.4958 12.8625 10 12.8625Z" fill="black"/>
</svg>
