<svg width="20" height="20" viewBox="0 0 20 20" fill="none" xmlns="http://www.w3.org/2000/svg">
<path d="M18.7167 6.30833L10.2975 1.7625C10.1117 1.6625 9.88918 1.6625 9.70335 1.7625L1.28585 6.30833C0.982515 6.4725 0.869181 6.85167 1.03335 7.15583C1.14585 7.36417 1.36168 7.48333 1.58335 7.48333C1.68335 7.48333 1.78585 7.45833 1.88001 7.40833L2.55918 7.04167L3.91668 16.6358C4.09501 17.6483 5.00668 18.3542 6.13168 18.3542H13.8667C14.9933 18.3542 15.9042 17.6475 16.0858 16.615L17.4409 7.04L18.1225 7.40833C18.4258 7.56917 18.8058 7.45833 18.97 7.155C19.1334 6.8525 19.02 6.47333 18.7167 6.30833ZM14.8517 16.4192C14.7625 16.9242 14.2658 17.1042 13.8683 17.1042H6.13335C5.73335 17.1042 5.23751 16.9242 5.15168 16.4392L3.73335 6.40833L10 3.02333L16.2683 6.40667L14.8517 16.4192Z" fill="black"/>
<path d="M6.85001 10.1533C6.85001 11.89 8.26251 13.3033 10 13.3033C11.7375 13.3033 13.15 11.89 13.15 10.1533C13.15 8.41667 11.7375 7.00333 10 7.00333C8.26251 7.00333 6.85001 8.41667 6.85001 10.1533ZM11.9 10.1533C11.9 11.2017 11.0483 12.0533 10 12.0533C8.95167 12.0533 8.10001 11.2017 8.10001 10.1533C8.10001 9.105 8.95167 8.25333 10 8.25333C11.0483 8.25333 11.9 9.105 11.9 10.1533Z" fill="black"/>
</svg>
