<svg width="20" height="20" viewBox="0 0 20 20" fill="none" xmlns="http://www.w3.org/2000/svg">
<path d="M16.4584 18.3333H3.54169C2.50835 18.3333 1.66669 17.4917 1.66669 16.4583V3.54167C1.66669 2.50833 2.50835 1.66667 3.54169 1.66667H16.4584C17.4917 1.66667 18.3334 2.50833 18.3334 3.54167V16.4583C18.3334 17.4917 17.4917 18.3333 16.4584 18.3333ZM3.54169 2.91667C3.19669 2.91667 2.91669 3.1975 2.91669 3.54167V16.4583C2.91669 16.8025 3.19669 17.0833 3.54169 17.0833H16.4584C16.8034 17.0833 17.0834 16.8025 17.0834 16.4583V3.54167C17.0834 3.1975 16.8034 2.91667 16.4584 2.91667H3.54169Z" fill="black"/>
<path d="M14.1667 7.2H5.83337C5.48837 7.2 5.20837 6.91917 5.20837 6.575C5.20837 6.23083 5.48837 5.95 5.83337 5.95H14.1667C14.5117 5.95 14.7917 6.22917 14.7917 6.575C14.7917 6.92083 14.5117 7.2 14.1667 7.2ZM14.1667 10.625H5.83337C5.48837 10.625 5.20837 10.345 5.20837 10C5.20837 9.655 5.48837 9.375 5.83337 9.375H14.1667C14.5117 9.375 14.7917 9.655 14.7917 10C14.7917 10.345 14.5117 10.625 14.1667 10.625ZM10 14.05H5.83337C5.48837 14.05 5.20837 13.7708 5.20837 13.425C5.20837 13.0792 5.48837 12.8 5.83337 12.8H10C10.345 12.8 10.625 13.0808 10.625 13.425C10.625 13.7692 10.345 14.05 10 14.05Z" fill="black"/>
</svg>
