<svg width="20" height="20" viewBox="0 0 20 20" fill="none" xmlns="http://www.w3.org/2000/svg">
<path d="M16.4584 1.66667H3.54169C2.51085 1.66667 1.66669 2.51083 1.66669 3.54167V16.4583C1.66669 17.4892 2.51085 18.3333 3.54169 18.3333H16.4584C17.4892 18.3333 18.3334 17.4892 18.3334 16.4583V3.54167C18.3334 2.51083 17.4892 1.66667 16.4584 1.66667ZM9.16669 13.9583H5.83335C5.48835 13.9583 5.20835 13.6783 5.20835 13.3333C5.20835 12.9883 5.48835 12.7083 5.83335 12.7083H9.16669C9.51169 12.7083 9.79169 12.9883 9.79169 13.3333C9.79169 13.6783 9.51169 13.9583 9.16669 13.9583ZM14.1667 10.625H5.83335C5.48835 10.625 5.20835 10.345 5.20835 10C5.20835 9.655 5.48835 9.375 5.83335 9.375H14.1667C14.5117 9.375 14.7917 9.655 14.7917 10C14.7917 10.345 14.5117 10.625 14.1667 10.625ZM14.1667 7.29167H5.83335C5.48835 7.29167 5.20835 7.01167 5.20835 6.66667C5.20835 6.32167 5.48835 6.04167 5.83335 6.04167H14.1667C14.5117 6.04167 14.7917 6.32167 14.7917 6.66667C14.7917 7.01167 14.5117 7.29167 14.1667 7.29167Z" fill="black"/>
</svg>
