<svg width="20" height="20" viewBox="0 0 20 20" fill="none" xmlns="http://www.w3.org/2000/svg">
<path d="M16.5833 19.5833C16.4525 19.5833 16.3233 19.5417 16.215 19.4633L9.99999 14.94L3.78499 19.465C3.59499 19.6017 3.34332 19.6233 3.13332 19.515C2.92499 19.4092 2.79166 19.1942 2.79166 18.9592V4.66667C2.79166 3.63333 3.63332 2.79167 4.66666 2.79167H15.3317C16.365 2.79167 17.2067 3.63333 17.2067 4.66667V18.9583C17.2067 19.1933 17.075 19.4083 16.865 19.515C16.7767 19.5608 16.6792 19.5833 16.5817 19.5833H16.5833ZM9.99999 13.5417C10.1292 13.5417 10.2583 13.5817 10.3667 13.6617L15.9583 17.7308V4.66667C15.9583 4.32333 15.6775 4.04167 15.3333 4.04167H4.66666C4.32249 4.04167 4.04166 4.32333 4.04166 4.66667V17.7308L9.63332 13.6617C9.74166 13.5817 9.87082 13.5417 9.99999 13.5417Z" fill="black"/>
</svg>
