<svg width="20" height="20" viewBox="0 0 20 20" fill="none" xmlns="http://www.w3.org/2000/svg">
<path d="M16.0417 2.515H3.95832C2.69416 2.515 1.66666 3.54333 1.66666 4.80833V15.2208C1.66666 16.4858 2.69416 17.515 3.95832 17.515H16.0417C17.3058 17.515 18.3333 16.4858 18.3333 15.2208V4.80833C18.3333 3.54333 17.3058 2.515 16.0417 2.515ZM3.95832 3.765H16.0417C16.6167 3.765 17.0833 4.23167 17.0833 4.80667V5.40167L10.375 9.87417C10.1475 10.0242 9.85332 10.0258 9.62499 9.8725L2.91666 5.40167V4.80667C2.91666 4.23167 3.38332 3.765 3.95832 3.765ZM16.0417 16.2633H3.95832C3.38332 16.2633 2.91666 15.7967 2.91666 15.2217V6.86667L8.94999 10.8917C9.26916 11.105 9.63499 11.2117 9.99999 11.2117C10.3667 11.2117 10.7308 11.105 11.05 10.8925L17.0833 6.8675V15.2192C17.0833 15.7942 16.6167 16.2608 16.0417 16.2608V16.2633Z" fill="black"/>
</svg>
