<svg width="20" height="20" viewBox="0 0 20 20" fill="none" xmlns="http://www.w3.org/2000/svg">
<path d="M9.62499 10.0683C9.85249 10.22 10.1475 10.22 10.375 10.0683L18.3333 4.76333V4.58333C18.3333 3.55 17.4917 2.70833 16.4583 2.70833H3.54166C2.50832 2.70833 1.66666 3.55 1.66666 4.58333V4.7475L9.62499 10.0683Z" fill="black"/>
<path d="M11.05 11.0792C10.7308 11.2917 10.3667 11.3975 9.99999 11.3975C9.63332 11.3975 9.26916 11.2917 8.94999 11.0783L1.66666 6.21V15.935C1.66666 16.9683 2.50832 17.81 3.54166 17.81H16.4583C17.4917 17.81 18.3333 16.9683 18.3333 15.935V6.225L11.05 11.0775V11.0792Z" fill="black"/>
</svg>
