<svg width="24" height="24" viewBox="0 0 24 24" fill="none" xmlns="http://www.w3.org/2000/svg">
<path d="M12 24C18.6274 24 24 18.6274 24 12C24 5.37258 18.6274 0 12 0C5.37258 0 0 5.37258 0 12C0 18.6274 5.37258 24 12 24Z" fill="#334D5C"/>
<path opacity="0.1" d="M14.2025 5.9525L5.12497 9.14752V10.17L5.25495 10.3001L5.12497 10.3476V11.3701L5.25495 11.5001L5.12497 11.5476V12.5701L5.25495 12.7001L5.12497 12.7476V13.7701L5.25495 13.9001L5.12497 13.9476V14.9701L13.9881 23.8332C19.4551 22.9213 23.671 18.3158 23.9806 12.6672L18.875 7.56002L14.2025 5.9525Z" fill="black"/>
<path d="M16.6538 12.6177L14.2037 11.7735L9.44201 13.4501L5.12497 13.9484V14.9701L9.79616 16.5796L18.875 13.383V12.3613L16.6538 12.6177Z" fill="#31978C"/>
<path d="M14.2037 10.7518L5.12497 13.9484L9.79616 15.5579L18.875 12.3613L14.2037 10.7518Z" fill="#3EA69B"/>
<path d="M9.17972 15.1155L6.40173 14.1584C6.7366 14.0404 6.73362 13.8503 6.39514 13.7337L13.6011 11.1965C13.9395 11.3132 14.4854 11.3121 14.8203 11.1942L17.5982 12.1514C17.2634 12.2693 17.2663 12.4594 17.6048 12.576L10.3989 15.1132C10.0604 14.9966 9.51458 14.9976 9.17972 15.1155Z" fill="#44C4A1"/>
<path d="M13.2452 12.7164C14.1252 13.0196 14.2811 13.4617 13.5934 13.7039C12.9057 13.946 11.6348 13.8965 10.7548 13.5933C9.87476 13.2901 9.7189 12.848 10.4066 12.6059C11.0943 12.3637 12.3652 12.4133 13.2452 12.7164Z" fill="#3EA69B"/>
<path d="M15.8085 11.8139C15.9658 11.8681 15.9672 11.9564 15.8116 12.0112C15.656 12.066 15.4023 12.0665 15.2451 12.0123C15.0877 11.9581 15.0864 11.8697 15.242 11.815C15.3976 11.7602 15.6512 11.7597 15.8085 11.8139Z" fill="#3EA69B"/>
<path d="M8.75494 14.2974C8.91227 14.3516 8.91364 14.4399 8.75802 14.4948C8.6024 14.5496 8.34874 14.55 8.19147 14.4958C8.03414 14.4416 8.03278 14.3533 8.18839 14.2985C8.34396 14.2437 8.59762 14.2433 8.75494 14.2974Z" fill="#3EA69B"/>
<path d="M13.2159 13.6207L12.9899 13.5428C12.6812 13.6314 12.3175 13.6811 11.8991 13.6918L11.8533 13.5203C12.1755 13.5118 12.4416 13.4806 12.6526 13.4265L12.0519 13.2196C11.7655 13.2817 11.5232 13.3159 11.3252 13.3223C11.1272 13.3288 10.9389 13.3012 10.7604 13.2397C10.5819 13.1782 10.4975 13.1062 10.5074 13.0235C10.5175 12.9409 10.6165 12.863 10.8043 12.7897L10.6494 12.7363L10.8453 12.6673L11.0032 12.7217C11.2444 12.6484 11.5341 12.6003 11.8725 12.5775L11.9582 12.7457C11.7264 12.7598 11.5207 12.7905 11.3407 12.838L11.9227 13.0385L11.9319 13.0353C12.2225 12.9719 12.4703 12.9371 12.6753 12.931C12.8807 12.9249 13.0736 12.9529 13.2541 13.0151C13.4348 13.0774 13.5186 13.1504 13.5054 13.234C13.4924 13.3177 13.387 13.3979 13.189 13.4749L13.4118 13.5517L13.2159 13.6207ZM11.0015 13.0082C10.9958 13.0425 11.0277 13.0716 11.0968 13.0954C11.1659 13.1193 11.2411 13.1309 11.3221 13.1303C11.4031 13.1299 11.5195 13.1159 11.6711 13.0884L11.1354 12.9038C11.0518 12.9391 11.0071 12.9738 11.0015 13.0082ZM13.0037 13.2489C13.0134 13.2125 12.9822 13.1818 12.9099 13.1569C12.8378 13.132 12.758 13.1202 12.6708 13.1214C12.5834 13.1227 12.4599 13.1385 12.3004 13.1688L12.8576 13.3608C12.9454 13.3228 12.9939 13.2855 13.0037 13.2489Z" fill="#44C4A1"/>
<path d="M16.6538 11.4176L14.2037 10.5734L9.44201 12.2501L5.12497 12.7483V13.7701L9.79616 15.3795L18.875 12.1829V11.1612L16.6538 11.4176Z" fill="#31978C"/>
<path d="M14.2037 9.55176L5.12497 12.7483L9.79616 14.3578L18.875 11.1612L14.2037 9.55176Z" fill="#3EA69B"/>
<path d="M9.17972 13.9154L6.40173 12.9583C6.7366 12.8403 6.73362 12.6502 6.39514 12.5336L13.6011 9.99644C13.9395 10.1131 14.4854 10.112 14.8203 9.99414L17.5982 10.9513C17.2634 11.0692 17.2663 11.2593 17.6048 11.3759L10.3989 13.9131C10.0604 13.7965 9.51458 13.7975 9.17972 13.9154Z" fill="#44C4A1"/>
<path d="M13.2452 11.5164C14.1252 11.8196 14.2811 12.2617 13.5934 12.5038C12.9057 12.746 11.6348 12.6965 10.7548 12.3933C9.87476 12.0901 9.7189 11.648 10.4066 11.4058C11.0943 11.1637 12.3652 11.2132 13.2452 11.5164Z" fill="#3EA69B"/>
<path d="M15.8085 10.6138C15.9658 10.668 15.9672 10.7563 15.8116 10.8111C15.656 10.8659 15.4023 10.8664 15.2451 10.8122C15.0877 10.758 15.0864 10.6696 15.242 10.6149C15.3976 10.5601 15.6512 10.5596 15.8085 10.6138Z" fill="#3EA69B"/>
<path d="M8.75494 13.0974C8.91227 13.1516 8.91364 13.2399 8.75802 13.2947C8.6024 13.3495 8.34874 13.35 8.19147 13.2958C8.03414 13.2416 8.03278 13.1532 8.18839 13.0984C8.34396 13.0437 8.59762 13.0432 8.75494 13.0974Z" fill="#3EA69B"/>
<path d="M13.2159 12.4206L12.9899 12.3427C12.6812 12.4313 12.3175 12.481 11.8991 12.4917L11.8533 12.3202C12.1755 12.3117 12.4416 12.2805 12.6526 12.2264L12.0519 12.0195C11.7655 12.0816 11.5232 12.1158 11.3252 12.1222C11.1272 12.1287 10.9389 12.1011 10.7604 12.0396C10.5819 11.9781 10.4975 11.9061 10.5074 11.8235C10.5175 11.7408 10.6165 11.6629 10.8043 11.5896L10.6494 11.5363L10.8453 11.4673L11.0032 11.5217C11.2444 11.4483 11.5341 11.4002 11.8725 11.3774L11.9582 11.5456C11.7264 11.5597 11.5207 11.5904 11.3407 11.6379L11.9227 11.8384L11.9319 11.8352C12.2225 11.7718 12.4703 11.737 12.6753 11.7309C12.8807 11.7248 13.0736 11.7529 13.2541 11.8151C13.4348 11.8773 13.5186 11.9503 13.5054 12.0339C13.4924 12.1176 13.387 12.1978 13.189 12.2748L13.4118 12.3515L13.2159 12.4206ZM11.0015 11.8081C10.9958 11.8425 11.0277 11.8715 11.0968 11.8953C11.1659 11.9192 11.2411 11.9308 11.3221 11.9302C11.4031 11.9299 11.5195 11.9158 11.6711 11.8883L11.1354 11.7037C11.0518 11.739 11.0071 11.7738 11.0015 11.8081ZM13.0037 12.0489C13.0134 12.0124 12.9822 11.9817 12.9099 11.9568C12.8378 11.932 12.758 11.9201 12.6708 11.9213C12.5834 11.9226 12.4599 11.9384 12.3004 11.9687L12.8576 12.1607C12.9454 12.1227 12.9939 12.0854 13.0037 12.0489Z" fill="#44C4A1"/>
<path d="M16.6538 10.2175L14.2037 9.37334L9.44201 11.0499L5.12497 11.5482V12.57L9.79616 14.1794L18.875 10.9828V9.96113L16.6538 10.2175Z" fill="#31978C"/>
<path d="M14.2037 8.35167L5.12497 11.5483L9.79616 13.1577L18.875 9.96115L14.2037 8.35167Z" fill="#3EA69B"/>
<path d="M9.17972 12.7153L6.40173 11.7582C6.7366 11.6403 6.73362 11.4502 6.39514 11.3335L13.6011 8.79636C13.9395 8.91301 14.4854 8.91194 14.8203 8.79407L17.5982 9.7512C17.2634 9.86912 17.2663 10.0592 17.6048 10.1759L10.3989 12.713C10.0604 12.5964 9.51458 12.5974 9.17972 12.7153Z" fill="#44C4A1"/>
<path d="M13.2452 10.3162C14.1252 10.6195 14.2811 11.0615 13.5934 11.3037C12.9057 11.5458 11.6348 11.4963 10.7548 11.1931C9.87476 10.8899 9.7189 10.4478 10.4066 10.2057C11.0943 9.96355 12.3652 10.013 13.2452 10.3162Z" fill="#3EA69B"/>
<path d="M15.8085 9.4137C15.9658 9.4679 15.9672 9.55623 15.8116 9.61102C15.656 9.6658 15.4023 9.66629 15.2451 9.61209C15.0877 9.55789 15.0864 9.46956 15.242 9.41478C15.3976 9.35999 15.6512 9.3595 15.8085 9.4137Z" fill="#3EA69B"/>
<path d="M8.75494 11.8973C8.91227 11.9515 8.91364 12.0398 8.75802 12.0946C8.6024 12.1494 8.34874 12.1499 8.19147 12.0957C8.03414 12.0415 8.03278 11.9531 8.18839 11.8983C8.34396 11.8436 8.59762 11.8431 8.75494 11.8973Z" fill="#3EA69B"/>
<path d="M13.2159 11.2205L12.9899 11.1426C12.6812 11.2312 12.3175 11.281 11.8991 11.2916L11.8533 11.1201C12.1755 11.1117 12.4416 11.0804 12.6526 11.0264L12.0519 10.8194C11.7655 10.8815 11.5232 10.9157 11.3252 10.9222C11.1272 10.9286 10.9389 10.9011 10.7604 10.8395C10.5819 10.778 10.4975 10.706 10.5074 10.6234C10.5175 10.5408 10.6165 10.4628 10.8043 10.3895L10.6494 10.3362L10.8453 10.2672L11.0032 10.3216C11.2444 10.2482 11.5341 10.2001 11.8725 10.1773L11.9582 10.3456C11.7264 10.3597 11.5207 10.3904 11.3407 10.4379L11.9227 10.6384L11.9319 10.6352C12.2225 10.5718 12.4703 10.537 12.6753 10.5309C12.8807 10.5247 13.0736 10.5528 13.2541 10.615C13.4348 10.6773 13.5186 10.7502 13.5054 10.8339C13.4924 10.9176 13.387 10.9978 13.189 11.0747L13.4118 11.1516L13.2159 11.2205ZM11.0015 10.6081C10.9958 10.6424 11.0277 10.6714 11.0968 10.6953C11.1659 10.7191 11.2411 10.7307 11.3221 10.7302C11.4031 10.7298 11.5195 10.7157 11.6711 10.6882L11.1354 10.5037C11.0518 10.539 11.0071 10.5737 11.0015 10.6081ZM13.0037 10.8488C13.0134 10.8123 12.9822 10.7816 12.9099 10.7567C12.8378 10.7319 12.758 10.72 12.6708 10.7212C12.5834 10.7226 12.4599 10.7383 12.3004 10.7686L12.8576 10.9606C12.9454 10.9226 12.9939 10.8853 13.0037 10.8488Z" fill="#44C4A1"/>
<path d="M16.6538 9.0174L14.2037 8.17326L9.44201 9.84983L5.12497 10.3481V11.3698L9.79616 12.9793L18.875 9.78274V8.76101L16.6538 9.0174Z" fill="#31978C"/>
<path d="M14.2037 7.15158L5.12497 10.3482L9.79616 11.9576L18.875 8.76105L14.2037 7.15158Z" fill="#3EA69B"/>
<path d="M9.17972 11.5152L6.40173 10.5581C6.7366 10.4402 6.73362 10.2501 6.39514 10.1334L13.6011 7.59626C13.9395 7.71291 14.4854 7.71183 14.8203 7.59396L17.5982 8.55109C17.2634 8.66901 17.2663 8.8591 17.6048 8.97575L10.3989 11.5129C10.0604 11.3963 9.51458 11.3973 9.17972 11.5152Z" fill="#44C4A1"/>
<path d="M13.2452 9.11613C14.1252 9.41935 14.2811 9.86144 13.5934 10.1036C12.9057 10.3457 11.6348 10.2962 10.7548 9.99303C9.87476 9.68981 9.7189 9.24772 10.4066 9.00558C11.0943 8.76344 12.3652 8.81291 13.2452 9.11613Z" fill="#3EA69B"/>
<path d="M15.8085 8.21361C15.9658 8.26781 15.9672 8.35614 15.8116 8.41093C15.656 8.46571 15.4023 8.4662 15.2451 8.412C15.0877 8.3578 15.0864 8.26947 15.242 8.21469C15.3976 8.1599 15.6512 8.15941 15.8085 8.21361Z" fill="#3EA69B"/>
<path d="M8.75494 10.6972C8.91227 10.7514 8.91364 10.8397 8.75802 10.8945C8.6024 10.9493 8.34874 10.9498 8.19147 10.8956C8.03414 10.8414 8.03278 10.7531 8.18839 10.6983C8.34396 10.6435 8.59762 10.643 8.75494 10.6972Z" fill="#3EA69B"/>
<path d="M13.2159 10.0204L12.9899 9.9425C12.6812 10.0311 12.3175 10.0808 11.8991 10.0915L11.8533 9.91999C12.1755 9.91155 12.4416 9.8803 12.6526 9.82624L12.0519 9.61931C11.7655 9.68137 11.5232 9.7156 11.3252 9.72205C11.1272 9.72849 10.9389 9.70095 10.7604 9.63943C10.5819 9.57791 10.4975 9.50593 10.5074 9.42327C10.5175 9.34065 10.6165 9.26272 10.8043 9.18938L10.6494 9.13606L10.8453 9.06707L11.0032 9.12146C11.2444 9.04812 11.5341 9.00002 11.8725 8.97717L11.9582 9.14543C11.7264 9.1595 11.5207 9.19021 11.3407 9.23772L11.9227 9.43826L11.9319 9.43503C12.2225 9.37161 12.4703 9.33684 12.6753 9.33074C12.8807 9.32458 13.0736 9.35266 13.2541 9.41487C13.4348 9.47712 13.5186 9.55007 13.5054 9.63372C13.4924 9.71746 13.387 9.79763 13.189 9.87458L13.4118 9.95139L13.2159 10.0204ZM11.0015 9.40798C10.9958 9.44231 11.0277 9.47136 11.0968 9.49519C11.1659 9.51902 11.2411 9.53064 11.3221 9.5301C11.4031 9.52971 11.5195 9.51565 11.6711 9.48816L11.1354 9.30359C11.0518 9.33884 11.0071 9.37361 11.0015 9.40798ZM13.0037 9.64866C13.0134 9.61223 12.9822 9.58152 12.9099 9.55662C12.8378 9.53176 12.758 9.5199 12.6708 9.52112C12.5834 9.52244 12.4599 9.53821 12.3004 9.56853L12.8576 9.76052C12.9454 9.72248 12.9939 9.68523 13.0037 9.64866Z" fill="#44C4A1"/>
<path d="M16.6538 7.8173L14.2037 6.97316L9.44201 8.64977L5.12497 9.14806V10.1697L9.79616 11.7792L18.875 8.58263V7.5609L16.6538 7.8173Z" fill="#31978C"/>
<path d="M14.2037 5.95148L5.12497 9.14811L9.79616 10.7575L18.875 7.56095L14.2037 5.95148Z" fill="#3EA69B"/>
<path d="M9.17972 10.3151L6.40173 9.358C6.7366 9.24008 6.73362 9.04999 6.39514 8.93334L13.6011 6.39619C13.9395 6.51284 14.4854 6.51176 14.8203 6.39389L17.5982 7.35102C17.2634 7.46894 17.2663 7.65903 17.6048 7.77568L10.3989 10.3128C10.0604 10.1962 9.51458 10.1973 9.17972 10.3151Z" fill="#44C4A1"/>
<path d="M13.2452 7.91604C14.1252 8.21926 14.2811 8.66135 13.5934 8.90349C12.9057 9.14563 11.6348 9.09612 10.7548 8.79295C9.87476 8.48972 9.7189 8.04763 10.4066 7.80549C11.0943 7.56336 12.3652 7.61287 13.2452 7.91604Z" fill="#3EA69B"/>
<path d="M15.8085 7.01351C15.9658 7.06771 15.9672 7.15604 15.8116 7.21082C15.656 7.26561 15.4023 7.2661 15.2451 7.2119C15.0877 7.1577 15.0864 7.06937 15.242 7.01458C15.3976 6.9598 15.6512 6.95931 15.8085 7.01351Z" fill="#3EA69B"/>
<path d="M8.75494 9.49709C8.91227 9.55129 8.91364 9.63962 8.75802 9.69441C8.6024 9.74919 8.34874 9.74968 8.19147 9.69548C8.03414 9.64128 8.03278 9.55295 8.18839 9.49817C8.34396 9.44338 8.59762 9.44289 8.75494 9.49709Z" fill="#3EA69B"/>
<path d="M13.2159 8.82036L12.9899 8.74248C12.6812 8.8311 12.3175 8.88081 11.8991 8.8915L11.8533 8.71997C12.1755 8.71152 12.4416 8.68027 12.6526 8.62622L12.0519 8.41928C11.7655 8.48134 11.5232 8.51557 11.3252 8.52202C11.1272 8.52846 10.9389 8.50092 10.7604 8.4394C10.5819 8.37788 10.4975 8.30591 10.5074 8.22324C10.5175 8.14062 10.6165 8.06269 10.8043 7.98935L10.6494 7.93603L10.8453 7.86704L11.0032 7.92143C11.2444 7.84809 11.5341 7.8 11.8725 7.77715L11.9582 7.94541C11.7264 7.95947 11.5207 7.99018 11.3407 8.03769L11.9227 8.23823L11.9319 8.23501C12.2225 8.17158 12.4703 8.13681 12.6753 8.13071C12.8807 8.12456 13.0736 8.15263 13.2541 8.21484C13.4348 8.2771 13.5186 8.35005 13.5054 8.43369C13.4924 8.51743 13.387 8.5976 13.189 8.67456L13.4118 8.75136L13.2159 8.82036ZM11.0015 8.20791C10.9958 8.24223 11.0277 8.27129 11.0968 8.29511C11.1659 8.31894 11.2411 8.33056 11.3221 8.33003C11.4031 8.32964 11.5195 8.31557 11.6711 8.28808L11.1354 8.10351C11.0518 8.13877 11.0071 8.17353 11.0015 8.20791ZM13.0037 8.44863C13.0134 8.4122 12.9822 8.38149 12.9099 8.35659C12.8378 8.33174 12.758 8.31987 12.6708 8.32109C12.5834 8.32241 12.4599 8.33818 12.3004 8.3685L12.8576 8.56049C12.9454 8.52241 12.9939 8.48515 13.0037 8.44863Z" fill="#44C4A1"/>
<path d="M13.2699 9.53446V15.3581L15.3585 14.6227V8.79906L13.2699 9.53446Z" fill="white"/>
<path d="M13.5192 9.44668V15.2703L13.7347 15.1944V9.3708L13.5192 9.44668Z" fill="#FCD462"/>
<path d="M14.8937 8.96277V14.7864L15.1093 14.7105V8.88689L14.8937 8.96277Z" fill="#FCD462"/>
<path d="M15.1293 17.3017C15.1293 17.7142 14.3341 18.0485 13.3531 18.0485C12.3722 18.0485 11.577 17.7141 11.577 17.3017V16.6908H15.1293L15.1293 17.3017Z" fill="#F6C358"/>
<path d="M13.3525 17.4376C14.3336 17.4376 15.1289 17.1033 15.1289 16.6909C15.1289 16.2785 14.3336 15.9442 13.3525 15.9442C12.3715 15.9442 11.5762 16.2785 11.5762 16.6909C11.5762 17.1033 12.3715 17.4376 13.3525 17.4376Z" fill="#FCD462"/>
<path d="M13.3531 16.0899C12.497 16.0899 11.803 16.3589 11.803 16.6908C11.803 17.0227 12.497 17.2917 13.3531 17.2917C14.2092 17.2917 14.9033 17.0227 14.9033 16.6908C14.9033 16.3589 14.2092 16.0899 13.3531 16.0899ZM13.3531 17.2249C12.5921 17.2249 11.9752 16.9858 11.9752 16.6908C11.9752 16.3958 12.5921 16.1567 13.3531 16.1567C14.1141 16.1567 14.7311 16.3958 14.7311 16.6908C14.7311 16.9858 14.1141 17.2249 13.3531 17.2249Z" fill="#DC8744"/>
<path d="M13.2963 17.1059V17.0328C13.0602 17.0235 12.8483 16.9871 12.6607 16.9237L12.8493 16.8366C12.994 16.8853 13.1428 16.9143 13.2963 16.9237V16.7294C13.1016 16.7114 12.959 16.6877 12.8686 16.6583C12.7782 16.6289 12.733 16.5854 12.733 16.5276C12.733 16.4698 12.785 16.4226 12.8892 16.3859C12.9935 16.3491 13.1291 16.3291 13.2963 16.3258V16.2757H13.4615V16.3268C13.6509 16.3321 13.83 16.3572 13.9989 16.4019L13.8309 16.4941C13.7172 16.4627 13.5942 16.4433 13.4615 16.436V16.6242H13.4693C13.6673 16.6423 13.8128 16.6667 13.9057 16.6973C13.9989 16.728 14.0453 16.7726 14.0453 16.831C14.0453 16.8895 13.9919 16.9371 13.8851 16.9737C13.7783 17.0105 13.6372 17.0305 13.4614 17.0339V17.1059H13.2963ZM13.114 16.4594C13.0701 16.4744 13.0482 16.4931 13.0482 16.5155C13.0482 16.5379 13.0654 16.5555 13.0999 16.5686C13.1342 16.5816 13.1998 16.5941 13.2963 16.6062V16.4329C13.2187 16.4356 13.158 16.4444 13.114 16.4594ZM13.6579 16.8986C13.7061 16.8833 13.7302 16.8639 13.7302 16.8405C13.7302 16.8172 13.7113 16.7986 13.6734 16.785C13.6354 16.7713 13.5648 16.7585 13.4615 16.7464V16.9266C13.5442 16.9234 13.6096 16.914 13.6579 16.8986Z" fill="#DC8744"/>
<path d="M15.1293 16.5598C15.1293 16.9722 14.3341 17.3065 13.3531 17.3065C12.3722 17.3065 11.577 16.9722 11.577 16.5598V15.9489H15.1293L15.1293 16.5598Z" fill="#F6C358"/>
<path d="M13.3525 16.6954C14.3336 16.6954 15.1289 16.3611 15.1289 15.9487C15.1289 15.5363 14.3336 15.202 13.3525 15.202C12.3715 15.202 11.5762 15.5363 11.5762 15.9487C11.5762 16.3611 12.3715 16.6954 13.3525 16.6954Z" fill="#FCD462"/>
<path d="M13.3531 15.3479C12.497 15.3479 11.803 15.617 11.803 15.9489C11.803 16.2808 12.497 16.5498 13.3531 16.5498C14.2092 16.5498 14.9033 16.2808 14.9033 15.9489C14.9033 15.617 14.2092 15.3479 13.3531 15.3479ZM13.3531 16.483C12.5921 16.483 11.9752 16.2438 11.9752 15.9489C11.9752 15.6539 12.5921 15.4147 13.3531 15.4147C14.1141 15.4147 14.7311 15.6539 14.7311 15.9489C14.7311 16.2439 14.1141 16.483 13.3531 16.483Z" fill="#DC8744"/>
<path d="M13.2963 16.364V16.2909C13.0602 16.2816 12.8483 16.2452 12.6607 16.1818L12.8493 16.0947C12.994 16.1434 13.1428 16.1724 13.2963 16.1818V15.9875C13.1016 15.9695 12.959 15.9458 12.8686 15.9164C12.7782 15.887 12.733 15.8435 12.733 15.7857C12.733 15.728 12.785 15.6807 12.8892 15.644C12.9935 15.6073 13.1291 15.5872 13.2963 15.5839V15.5338H13.4615V15.5849C13.6509 15.5903 13.83 15.6153 13.9989 15.66L13.8309 15.7522C13.7172 15.7208 13.5942 15.7014 13.4615 15.6941V15.8823H13.4693C13.6673 15.9004 13.8128 15.9248 13.9057 15.9554C13.9989 15.9862 14.0453 16.0307 14.0453 16.0891C14.0453 16.1476 13.9919 16.1952 13.8851 16.2319C13.7783 16.2686 13.6372 16.2886 13.4614 16.292V16.364H13.2963ZM13.114 15.7176C13.0701 15.7325 13.0482 15.7512 13.0482 15.7736C13.0482 15.796 13.0654 15.8136 13.0999 15.8267C13.1342 15.8397 13.1998 15.8522 13.2963 15.8643V15.691C13.2187 15.6937 13.158 15.7025 13.114 15.7176ZM13.6579 16.1567C13.7061 16.1414 13.7302 16.122 13.7302 16.0987C13.7302 16.0753 13.7113 16.0568 13.6734 16.0431C13.6354 16.0294 13.5648 16.0166 13.4615 16.0045V16.1847C13.5442 16.1815 13.6096 16.1721 13.6579 16.1567Z" fill="#DC8744"/>
<path d="M15.1293 15.8178C15.1293 16.2303 14.3341 16.5646 13.3531 16.5646C12.3722 16.5646 11.577 16.2302 11.577 15.8178V15.2069H15.1293L15.1293 15.8178Z" fill="#F6C358"/>
<path d="M13.3525 15.9538C14.3336 15.9538 15.1289 15.6195 15.1289 15.2071C15.1289 14.7946 14.3336 14.4603 13.3525 14.4603C12.3715 14.4603 11.5762 14.7946 11.5762 15.2071C11.5762 15.6195 12.3715 15.9538 13.3525 15.9538Z" fill="#FCD462"/>
<path d="M13.3531 14.606C12.497 14.606 11.803 14.8751 11.803 15.207C11.803 15.5388 12.497 15.8079 13.3531 15.8079C14.2092 15.8079 14.9033 15.5388 14.9033 15.207C14.9033 14.8751 14.2092 14.606 13.3531 14.606ZM13.3531 15.7411C12.5921 15.7411 11.9752 15.502 11.9752 15.207C11.9752 14.912 12.5921 14.6729 13.3531 14.6729C14.1141 14.6729 14.7311 14.912 14.7311 15.207C14.7311 15.502 14.1141 15.7411 13.3531 15.7411Z" fill="#DC8744"/>
<path d="M13.2963 15.6221V15.549C13.0602 15.5396 12.8483 15.5033 12.6607 15.4398L12.8493 15.3527C12.994 15.4015 13.1428 15.4305 13.2963 15.4398V15.2456C13.1016 15.2275 12.959 15.2038 12.8686 15.1745C12.7782 15.1451 12.733 15.1015 12.733 15.0437C12.733 14.986 12.785 14.9388 12.8892 14.902C12.9935 14.8653 13.1291 14.8453 13.2963 14.8419V14.7918H13.4615V14.8429C13.6509 14.8483 13.83 14.8733 13.9989 14.9181L13.8309 15.0102C13.7172 14.9788 13.5942 14.9595 13.4615 14.9521V15.1404H13.4693C13.6673 15.1584 13.8128 15.1828 13.9057 15.2135C13.9989 15.2442 14.0453 15.2888 14.0453 15.3472C14.0453 15.4056 13.9919 15.4532 13.8851 15.4899C13.7783 15.5267 13.6372 15.5467 13.4614 15.55V15.6221H13.2963ZM13.114 14.9756C13.0701 14.9906 13.0482 15.0093 13.0482 15.0316C13.0482 15.054 13.0654 15.0717 13.0999 15.0847C13.1342 15.0977 13.1998 15.1102 13.2963 15.1223V14.949C13.2187 14.9517 13.158 14.9606 13.114 14.9756ZM13.6579 15.4147C13.7061 15.3994 13.7302 15.3801 13.7302 15.3567C13.7302 15.3333 13.7113 15.3148 13.6734 15.3011C13.6354 15.2874 13.5648 15.2746 13.4615 15.2625V15.4428C13.5442 15.4395 13.6096 15.4301 13.6579 15.4147Z" fill="#DC8744"/>
<path d="M15.1293 15.0759C15.1293 15.4884 14.3341 15.8227 13.3531 15.8227C12.3722 15.8227 11.577 15.4883 11.577 15.0759V14.465H15.1293L15.1293 15.0759Z" fill="#F6C358"/>
<path d="M13.3525 15.2115C14.3336 15.2115 15.1289 14.8772 15.1289 14.4648C15.1289 14.0524 14.3336 13.7181 13.3525 13.7181C12.3715 13.7181 11.5762 14.0524 11.5762 14.4648C11.5762 14.8772 12.3715 15.2115 13.3525 15.2115Z" fill="#FCD462"/>
<path d="M13.3531 13.864C12.497 13.864 11.803 14.1331 11.803 14.465C11.803 14.7968 12.497 15.0659 13.3531 15.0659C14.2092 15.0659 14.9033 14.7968 14.9033 14.465C14.9033 14.1331 14.2092 13.864 13.3531 13.864ZM13.3531 14.9991C12.5921 14.9991 11.9752 14.76 11.9752 14.465C11.9752 14.17 12.5921 13.9309 13.3531 13.9309C14.1141 13.9309 14.7311 14.17 14.7311 14.465C14.7311 14.76 14.1141 14.9991 13.3531 14.9991Z" fill="#DC8744"/>
<path d="M13.2963 14.8801V14.807C13.0602 14.7976 12.8483 14.7613 12.6607 14.6978L12.8493 14.6107C12.994 14.6595 13.1428 14.6885 13.2963 14.6978V14.5035C13.1016 14.4855 12.959 14.4618 12.8686 14.4325C12.7782 14.4031 12.733 14.3595 12.733 14.3017C12.733 14.244 12.785 14.1968 12.8892 14.16C12.9935 14.1233 13.1291 14.1033 13.2963 14.0999V14.0498H13.4615V14.1009C13.6509 14.1063 13.83 14.1313 13.9989 14.1761L13.8309 14.2682C13.7172 14.2368 13.5942 14.2175 13.4615 14.2101V14.3984H13.4693C13.6673 14.4164 13.8128 14.4408 13.9057 14.4715C13.9989 14.5022 14.0453 14.5468 14.0453 14.6052C14.0453 14.6636 13.9919 14.7112 13.8851 14.7479C13.7783 14.7846 13.6372 14.8047 13.4614 14.808V14.8801H13.2963ZM13.114 14.2336C13.0701 14.2486 13.0482 14.2673 13.0482 14.2897C13.0482 14.312 13.0654 14.3297 13.0999 14.3428C13.1342 14.3558 13.1998 14.3683 13.2963 14.3804V14.2071C13.2187 14.2097 13.158 14.2186 13.114 14.2336ZM13.6579 14.6727C13.7061 14.6574 13.7302 14.6381 13.7302 14.6147C13.7302 14.5913 13.7113 14.5728 13.6734 14.5591C13.6354 14.5454 13.5648 14.5326 13.4615 14.5205V14.7008C13.5442 14.6975 13.6096 14.6881 13.6579 14.6727Z" fill="#DC8744"/>
<path d="M15.1293 14.334C15.1293 14.7464 14.3341 15.0808 13.3531 15.0808C12.3722 15.0808 11.577 14.7464 11.577 14.334V13.7231H15.1293L15.1293 14.334Z" fill="#F6C358"/>
<path d="M13.3525 14.4699C14.3336 14.4699 15.1289 14.1356 15.1289 13.7232C15.1289 13.3108 14.3336 12.9764 13.3525 12.9764C12.3715 12.9764 11.5762 13.3108 11.5762 13.7232C11.5762 14.1356 12.3715 14.4699 13.3525 14.4699Z" fill="#FCD462"/>
<path d="M13.3531 13.1221C12.497 13.1221 11.803 13.3912 11.803 13.7231C11.803 14.055 12.497 14.324 13.3531 14.324C14.2092 14.324 14.9033 14.055 14.9033 13.7231C14.9033 13.3912 14.2092 13.1221 13.3531 13.1221ZM13.3531 14.2573C12.5921 14.2573 11.9752 14.0181 11.9752 13.7231C11.9752 13.4281 12.5921 13.189 13.3531 13.189C14.1141 13.189 14.7311 13.4282 14.7311 13.7231C14.7311 14.0181 14.1141 14.2573 13.3531 14.2573Z" fill="#DC8744"/>
<path d="M13.2963 14.1382V14.0651C13.0602 14.0558 12.8483 14.0194 12.6607 13.9559L12.8493 13.8688C12.994 13.9176 13.1428 13.9466 13.2963 13.9559V13.7617C13.1016 13.7436 12.959 13.7199 12.8686 13.6906C12.7782 13.6612 12.733 13.6176 12.733 13.5599C12.733 13.5021 12.785 13.4549 12.8892 13.4181C12.9935 13.3814 13.1291 13.3614 13.2963 13.3581V13.308H13.4615V13.359C13.6509 13.3644 13.83 13.3894 13.9989 13.4342L13.8309 13.5263C13.7172 13.4949 13.5942 13.4756 13.4615 13.4682V13.6565H13.4693C13.6673 13.6746 13.8128 13.6989 13.9057 13.7296C13.9989 13.7603 14.0453 13.8049 14.0453 13.8633C14.0453 13.9217 13.9919 13.9693 13.8851 14.006C13.7783 14.0428 13.6372 14.0628 13.4614 14.0661V14.1382H13.2963ZM13.114 13.4917C13.0701 13.5067 13.0482 13.5254 13.0482 13.5478C13.0482 13.5702 13.0654 13.5878 13.0999 13.6009C13.1342 13.6139 13.1998 13.6264 13.2963 13.6385V13.4652C13.2187 13.4679 13.158 13.4767 13.114 13.4917ZM13.6579 13.9309C13.7061 13.9155 13.7302 13.8962 13.7302 13.8728C13.7302 13.8495 13.7113 13.8309 13.6734 13.8172C13.6354 13.8036 13.5648 13.7907 13.4615 13.7787V13.9589C13.5442 13.9556 13.6096 13.9462 13.6579 13.9309Z" fill="#DC8744"/>
<path d="M15.1293 13.592C15.1293 14.0045 14.3341 14.3388 13.3531 14.3388C12.3722 14.3388 11.577 14.0044 11.577 13.592V12.9812H15.1293L15.1293 13.592Z" fill="#F6C358"/>
<path d="M13.3525 13.7277C14.3336 13.7277 15.1289 13.3934 15.1289 12.981C15.1289 12.5685 14.3336 12.2342 13.3525 12.2342C12.3715 12.2342 11.5762 12.5685 11.5762 12.981C11.5762 13.3934 12.3715 13.7277 13.3525 13.7277Z" fill="#FCD462"/>
<path d="M13.3531 12.3802C12.497 12.3802 11.803 12.6492 11.803 12.9811C11.803 13.313 12.497 13.582 13.3531 13.582C14.2092 13.582 14.9033 13.313 14.9033 12.9811C14.9033 12.6492 14.2092 12.3802 13.3531 12.3802ZM13.3531 13.5153C12.5921 13.5153 11.9752 13.2761 11.9752 12.9811C11.9752 12.6861 12.5921 12.447 13.3531 12.447C14.1141 12.447 14.7311 12.6862 14.7311 12.9811C14.7311 13.2761 14.1141 13.5153 13.3531 13.5153Z" fill="#DC8744"/>
<path d="M13.2963 13.3962V13.3231C13.0602 13.3138 12.8483 13.2774 12.6607 13.214L12.8493 13.1269C12.994 13.1756 13.1428 13.2046 13.2963 13.214V13.0197C13.1016 13.0017 12.959 12.978 12.8686 12.9486C12.7782 12.9193 12.733 12.8757 12.733 12.8179C12.733 12.7601 12.785 12.7129 12.8892 12.6762C12.9935 12.6394 13.1291 12.6194 13.2963 12.6161V12.566H13.4615V12.6171C13.6509 12.6225 13.83 12.6475 13.9989 12.6922L13.8309 12.7844C13.7172 12.753 13.5942 12.7336 13.4615 12.7263V12.9145H13.4693C13.6673 12.9326 13.8128 12.957 13.9057 12.9876C13.9989 13.0184 14.0453 13.0629 14.0453 13.1213C14.0453 13.1798 13.9919 13.2274 13.8851 13.2641C13.7783 13.3008 13.6372 13.3208 13.4614 13.3242V13.3962H13.2963ZM13.114 12.7498C13.0701 12.7648 13.0482 12.7835 13.0482 12.8059C13.0482 12.8282 13.0654 12.8459 13.0999 12.8589C13.1342 12.872 13.1998 12.8845 13.2963 12.8965V12.7232C13.2187 12.7259 13.158 12.7348 13.114 12.7498ZM13.6579 13.1889C13.7061 13.1736 13.7302 13.1542 13.7302 13.1309C13.7302 13.1075 13.7113 13.089 13.6734 13.0753C13.6354 13.0616 13.5648 13.0488 13.4615 13.0367V13.2169C13.5442 13.2137 13.6096 13.2043 13.6579 13.1889Z" fill="#DC8744"/>
<path d="M15.1293 12.8501C15.1293 13.2626 14.3341 13.5969 13.3531 13.5969C12.3722 13.5969 11.577 13.2625 11.577 12.8501V12.2392H15.1293L15.1293 12.8501Z" fill="#F6C358"/>
<path d="M13.3525 12.986C14.3336 12.986 15.1289 12.6517 15.1289 12.2393C15.1289 11.8268 14.3336 11.4925 13.3525 11.4925C12.3715 11.4925 11.5762 11.8268 11.5762 12.2393C11.5762 12.6517 12.3715 12.986 13.3525 12.986Z" fill="#FCD462"/>
<path d="M13.3531 11.6383C12.497 11.6383 11.803 11.9073 11.803 12.2392C11.803 12.5711 12.497 12.8401 13.3531 12.8401C14.2092 12.8401 14.9033 12.5711 14.9033 12.2392C14.9033 11.9073 14.2092 11.6383 13.3531 11.6383ZM13.3531 12.7733C12.5921 12.7733 11.9752 12.5342 11.9752 12.2392C11.9752 11.9442 12.5921 11.7051 13.3531 11.7051C14.1141 11.7051 14.7311 11.9442 14.7311 12.2392C14.7311 12.5342 14.1141 12.7733 13.3531 12.7733Z" fill="#DC8744"/>
<path d="M13.2963 12.6543V12.5812C13.0602 12.5719 12.8483 12.5355 12.6607 12.4721L12.8493 12.385C12.994 12.4337 13.1428 12.4627 13.2963 12.4721V12.2778C13.1016 12.2598 12.959 12.2361 12.8686 12.2067C12.7782 12.1773 12.733 12.1338 12.733 12.076C12.733 12.0182 12.785 11.971 12.8892 11.9342C12.9935 11.8975 13.1291 11.8775 13.2963 11.8742V11.8241H13.4615V11.8752C13.6509 11.8805 13.83 11.9056 13.9989 11.9503L13.8309 12.0424C13.7172 12.011 13.5942 11.9917 13.4615 11.9843V12.1726H13.4693C13.6673 12.1907 13.8128 12.2151 13.9057 12.2457C13.9989 12.2764 14.0453 12.321 14.0453 12.3794C14.0453 12.4379 13.9919 12.4855 13.8851 12.5221C13.7783 12.5589 13.6372 12.5789 13.4614 12.5822V12.6543H13.2963V12.6543ZM13.114 12.0079C13.0701 12.0229 13.0482 12.0416 13.0482 12.0639C13.0482 12.0863 13.0654 12.104 13.0999 12.117C13.1342 12.13 13.1998 12.1425 13.2963 12.1546V11.9813C13.2187 11.984 13.158 11.9928 13.114 12.0079ZM13.6579 12.447C13.7061 12.4317 13.7302 12.4124 13.7302 12.389C13.7302 12.3656 13.7113 12.3471 13.6734 12.3334C13.6354 12.3197 13.5648 12.3069 13.4615 12.2948V12.4751C13.5442 12.4717 13.6096 12.4624 13.6579 12.447Z" fill="#DC8744"/>
<path d="M15.1293 12.1082C15.1293 12.5206 14.3341 12.8549 13.3531 12.8549C12.3722 12.8549 11.577 12.5206 11.577 12.1082V11.4973H15.1293L15.1293 12.1082Z" fill="#F6C358"/>
<path d="M13.3525 12.2438C14.3336 12.2438 15.1289 11.9095 15.1289 11.4971C15.1289 11.0847 14.3336 10.7504 13.3525 10.7504C12.3715 10.7504 11.5762 11.0847 11.5762 11.4971C11.5762 11.9095 12.3715 12.2438 13.3525 12.2438Z" fill="#FCD462"/>
<path d="M13.3531 10.8963C12.497 10.8963 11.803 11.1654 11.803 11.4973C11.803 11.8291 12.497 12.0982 13.3531 12.0982C14.2092 12.0982 14.9033 11.8291 14.9033 11.4973C14.9033 11.1654 14.2092 10.8963 13.3531 10.8963ZM13.3531 12.0314C12.5921 12.0314 11.9752 11.7922 11.9752 11.4973C11.9752 11.2023 12.5921 10.9631 13.3531 10.9631C14.1141 10.9631 14.7311 11.2023 14.7311 11.4973C14.7311 11.7922 14.1141 12.0314 13.3531 12.0314Z" fill="#DC8744"/>
<path d="M13.2963 11.9124V11.8393C13.0602 11.83 12.8483 11.7936 12.6607 11.7302L12.8493 11.643C12.994 11.6918 13.1428 11.7208 13.2963 11.7302V11.5359C13.1016 11.5178 12.959 11.4941 12.8686 11.4648C12.7782 11.4354 12.733 11.3918 12.733 11.3341C12.733 11.2763 12.785 11.2291 12.8892 11.1923C12.9935 11.1556 13.1291 11.1356 13.2963 11.1323V11.0822H13.4615V11.1332C13.6509 11.1386 13.83 11.1636 13.9989 11.2084L13.8309 11.3005C13.7172 11.2691 13.5942 11.2498 13.4615 11.2424V11.4307H13.4693C13.6673 11.4488 13.8128 11.4731 13.9057 11.5038C13.9989 11.5345 14.0453 11.5791 14.0453 11.6375C14.0453 11.6959 13.9919 11.7435 13.8851 11.7802C13.7783 11.817 13.6372 11.837 13.4614 11.8403V11.9124H13.2963ZM13.114 11.2659C13.0701 11.2809 13.0482 11.2996 13.0482 11.322C13.0482 11.3444 13.0654 11.362 13.0999 11.3751C13.1342 11.3881 13.1998 11.4006 13.2963 11.4127V11.2394C13.2187 11.2421 13.158 11.2509 13.114 11.2659ZM13.6579 11.7051C13.7061 11.6898 13.7302 11.6704 13.7302 11.647C13.7302 11.6237 13.7113 11.6052 13.6734 11.5915C13.6354 11.5778 13.5648 11.565 13.4615 11.5529V11.7331C13.5442 11.7298 13.6096 11.7204 13.6579 11.7051Z" fill="#DC8744"/>
<path d="M18.875 17.3017C18.875 17.7142 18.0798 18.0485 17.0989 18.0485C16.1179 18.0485 15.3227 17.7141 15.3227 17.3017V16.6908H18.8751L18.875 17.3017Z" fill="#F6C358"/>
<path d="M17.1001 17.4376C18.0812 17.4376 18.8765 17.1033 18.8765 16.6909C18.8765 16.2785 18.0812 15.9442 17.1001 15.9442C16.119 15.9442 15.3237 16.2785 15.3237 16.6909C15.3237 17.1033 16.119 17.4376 17.1001 17.4376Z" fill="#FCD462"/>
<path d="M17.0989 16.0899C16.2427 16.0899 15.5487 16.3589 15.5487 16.6908C15.5487 17.0227 16.2427 17.2917 17.0989 17.2917C17.955 17.2917 18.649 17.0227 18.649 16.6908C18.649 16.3589 17.955 16.0899 17.0989 16.0899ZM17.0989 17.2249C16.3379 17.2249 15.7209 16.9858 15.7209 16.6908C15.7209 16.3958 16.3379 16.1567 17.0989 16.1567C17.8598 16.1567 18.4768 16.3958 18.4768 16.6908C18.4768 16.9858 17.8598 17.2249 17.0989 17.2249Z" fill="#DC8744"/>
<path d="M17.042 17.1059V17.0328C16.8059 17.0235 16.594 16.9871 16.4064 16.9237L16.595 16.8366C16.7396 16.8853 16.8885 16.9143 17.042 16.9237V16.7294C16.8473 16.7114 16.7047 16.6877 16.6143 16.6583C16.5239 16.6289 16.4787 16.5854 16.4787 16.5276C16.4787 16.4698 16.5307 16.4226 16.6349 16.3859C16.7392 16.3491 16.8748 16.3291 17.042 16.3258V16.2757H17.2072V16.3268C17.3967 16.3321 17.5758 16.3572 17.7446 16.4019L17.5766 16.4941C17.4629 16.4627 17.3399 16.4433 17.2072 16.436V16.6242H17.215C17.413 16.6423 17.5585 16.6667 17.6515 16.6973C17.7446 16.728 17.7911 16.7726 17.7911 16.831C17.7911 16.8895 17.7376 16.9371 17.6308 16.9737C17.5241 17.0105 17.3829 17.0305 17.2072 17.0339V17.1059H17.042ZM16.8598 16.4594C16.8158 16.4744 16.7939 16.4931 16.7939 16.5155C16.7939 16.5379 16.8112 16.5555 16.8456 16.5686C16.8799 16.5816 16.9455 16.5941 17.042 16.6062V16.4329C16.9644 16.4356 16.9037 16.4444 16.8598 16.4594ZM17.4037 16.8986C17.4518 16.8833 17.476 16.8639 17.476 16.8405C17.476 16.8172 17.457 16.7986 17.4192 16.785C17.3811 16.7713 17.3105 16.7585 17.2073 16.7464V16.9266C17.2899 16.9234 17.3553 16.914 17.4037 16.8986Z" fill="#DC8744"/>
<path d="M18.875 16.5598C18.875 16.9722 18.0798 17.3065 17.0989 17.3065C16.1179 17.3065 15.3227 16.9722 15.3227 16.5598V15.9489H18.8751L18.875 16.5598Z" fill="#F6C358"/>
<path d="M17.1001 16.6954C18.0812 16.6954 18.8765 16.3611 18.8765 15.9487C18.8765 15.5363 18.0812 15.202 17.1001 15.202C16.119 15.202 15.3237 15.5363 15.3237 15.9487C15.3237 16.3611 16.119 16.6954 17.1001 16.6954Z" fill="#FCD462"/>
<path d="M17.0989 15.3479C16.2427 15.3479 15.5487 15.617 15.5487 15.9489C15.5487 16.2808 16.2427 16.5498 17.0989 16.5498C17.955 16.5498 18.649 16.2808 18.649 15.9489C18.649 15.617 17.955 15.3479 17.0989 15.3479ZM17.0989 16.483C16.3379 16.483 15.7209 16.2438 15.7209 15.9489C15.7209 15.6539 16.3379 15.4147 17.0989 15.4147C17.8598 15.4147 18.4768 15.6539 18.4768 15.9489C18.4767 16.2439 17.8598 16.483 17.0989 16.483Z" fill="#DC8744"/>
<path d="M17.042 16.364V16.2909C16.8059 16.2816 16.594 16.2452 16.4064 16.1818L16.595 16.0947C16.7396 16.1434 16.8885 16.1724 17.042 16.1818V15.9875C16.8473 15.9695 16.7047 15.9458 16.6143 15.9164C16.5239 15.887 16.4787 15.8435 16.4787 15.7857C16.4787 15.728 16.5307 15.6807 16.6349 15.644C16.7392 15.6073 16.8748 15.5872 17.042 15.5839V15.5338H17.2072V15.5849C17.3967 15.5903 17.5758 15.6153 17.7446 15.66L17.5766 15.7522C17.4629 15.7208 17.3399 15.7014 17.2072 15.6941V15.8823H17.215C17.413 15.9004 17.5585 15.9248 17.6515 15.9554C17.7446 15.9862 17.7911 16.0307 17.7911 16.0891C17.7911 16.1476 17.7376 16.1952 17.6308 16.2319C17.5241 16.2686 17.3829 16.2886 17.2072 16.292V16.364H17.042ZM16.8598 15.7176C16.8158 15.7325 16.7939 15.7512 16.7939 15.7736C16.7939 15.796 16.8112 15.8136 16.8456 15.8267C16.8799 15.8397 16.9455 15.8522 17.042 15.8643V15.691C16.9644 15.6937 16.9037 15.7025 16.8598 15.7176ZM17.4037 16.1567C17.4518 16.1414 17.476 16.122 17.476 16.0987C17.476 16.0753 17.457 16.0568 17.4192 16.0431C17.3811 16.0294 17.3105 16.0166 17.2073 16.0045V16.1847C17.2899 16.1815 17.3553 16.1721 17.4037 16.1567Z" fill="#DC8744"/>
<path d="M18.875 15.8178C18.875 16.2303 18.0798 16.5646 17.0989 16.5646C16.1179 16.5646 15.3227 16.2302 15.3227 15.8178V15.2069H18.8751L18.875 15.8178Z" fill="#F6C358"/>
<path d="M17.1001 15.9538C18.0812 15.9538 18.8765 15.6195 18.8765 15.2071C18.8765 14.7946 18.0812 14.4603 17.1001 14.4603C16.119 14.4603 15.3237 14.7946 15.3237 15.2071C15.3237 15.6195 16.119 15.9538 17.1001 15.9538Z" fill="#FCD462"/>
<path d="M17.0989 14.606C16.2427 14.606 15.5487 14.8751 15.5487 15.207C15.5487 15.5388 16.2427 15.8079 17.0989 15.8079C17.955 15.8079 18.649 15.5388 18.649 15.207C18.649 14.8751 17.955 14.606 17.0989 14.606ZM17.0989 15.7411C16.3379 15.7411 15.7209 15.502 15.7209 15.207C15.7209 14.912 16.3379 14.6729 17.0989 14.6729C17.8598 14.6729 18.4768 14.912 18.4768 15.207C18.4767 15.502 17.8598 15.7411 17.0989 15.7411Z" fill="#DC8744"/>
<path d="M17.042 15.6221V15.549C16.8059 15.5396 16.594 15.5033 16.4064 15.4398L16.595 15.3527C16.7396 15.4015 16.8885 15.4305 17.042 15.4398V15.2456C16.8473 15.2275 16.7047 15.2038 16.6143 15.1745C16.524 15.1451 16.4787 15.1015 16.4787 15.0437C16.4787 14.986 16.5307 14.9388 16.6349 14.902C16.7392 14.8653 16.8748 14.8453 17.042 14.8419V14.7918H17.2072V14.8429C17.3967 14.8483 17.5758 14.8733 17.7446 14.9181L17.5766 15.0102C17.4629 14.9788 17.3399 14.9595 17.2072 14.9521V15.1404H17.215C17.413 15.1584 17.5585 15.1828 17.6515 15.2135C17.7446 15.2442 17.7911 15.2888 17.7911 15.3472C17.7911 15.4056 17.7376 15.4532 17.6308 15.4899C17.5241 15.5267 17.3829 15.5467 17.2072 15.55V15.6221H17.042ZM16.8598 14.9756C16.8158 14.9906 16.7939 15.0093 16.7939 15.0316C16.7939 15.054 16.8112 15.0717 16.8456 15.0847C16.8799 15.0977 16.9455 15.1102 17.042 15.1223V14.949C16.9644 14.9517 16.9037 14.9606 16.8598 14.9756ZM17.4037 15.4147C17.4518 15.3994 17.476 15.3801 17.476 15.3567C17.476 15.3333 17.457 15.3148 17.4192 15.3011C17.3811 15.2874 17.3105 15.2746 17.2073 15.2625V15.4428C17.2899 15.4395 17.3553 15.4301 17.4037 15.4147Z" fill="#DC8744"/>
<path d="M18.875 15.0759C18.875 15.4884 18.0798 15.8227 17.0989 15.8227C16.1179 15.8227 15.3227 15.4883 15.3227 15.0759V14.465H18.8751L18.875 15.0759Z" fill="#F6C358"/>
<path d="M17.1001 15.2115C18.0812 15.2115 18.8765 14.8772 18.8765 14.4648C18.8765 14.0524 18.0812 13.7181 17.1001 13.7181C16.119 13.7181 15.3237 14.0524 15.3237 14.4648C15.3237 14.8772 16.119 15.2115 17.1001 15.2115Z" fill="#FCD462"/>
<path d="M17.0989 13.864C16.2427 13.864 15.5487 14.1331 15.5487 14.465C15.5487 14.7968 16.2427 15.0659 17.0989 15.0659C17.955 15.0659 18.649 14.7968 18.649 14.465C18.649 14.1331 17.955 13.864 17.0989 13.864ZM17.0989 14.9991C16.3379 14.9991 15.7209 14.76 15.7209 14.465C15.7209 14.17 16.3379 13.9309 17.0989 13.9309C17.8598 13.9309 18.4768 14.17 18.4768 14.465C18.4767 14.76 17.8598 14.9991 17.0989 14.9991Z" fill="#DC8744"/>
<path d="M17.042 14.8801V14.807C16.8059 14.7976 16.594 14.7613 16.4064 14.6978L16.595 14.6107C16.7396 14.6595 16.8885 14.6885 17.042 14.6978V14.5035C16.8473 14.4855 16.7047 14.4618 16.6143 14.4325C16.524 14.4031 16.4787 14.3595 16.4787 14.3017C16.4787 14.244 16.5307 14.1968 16.6349 14.16C16.7392 14.1233 16.8748 14.1033 17.042 14.0999V14.0498H17.2072V14.1009C17.3967 14.1063 17.5758 14.1313 17.7446 14.1761L17.5766 14.2682C17.4629 14.2368 17.3399 14.2175 17.2072 14.2101V14.3984H17.215C17.413 14.4164 17.5585 14.4408 17.6515 14.4715C17.7446 14.5022 17.7911 14.5468 17.7911 14.6052C17.7911 14.6636 17.7376 14.7112 17.6308 14.7479C17.5241 14.7846 17.3829 14.8047 17.2072 14.808V14.8801H17.042ZM16.8598 14.2336C16.8158 14.2486 16.7939 14.2673 16.7939 14.2897C16.7939 14.312 16.8112 14.3297 16.8456 14.3428C16.8799 14.3558 16.9455 14.3683 17.042 14.3804V14.2071C16.9644 14.2097 16.9037 14.2186 16.8598 14.2336ZM17.4037 14.6727C17.4518 14.6574 17.476 14.6381 17.476 14.6147C17.476 14.5913 17.457 14.5728 17.4192 14.5591C17.3811 14.5454 17.3105 14.5326 17.2073 14.5205V14.7008C17.2899 14.6975 17.3553 14.6881 17.4037 14.6727Z" fill="#DC8744"/>
<path d="M18.875 14.334C18.875 14.7464 18.0798 15.0808 17.0989 15.0808C16.1179 15.0808 15.3227 14.7464 15.3227 14.334V13.7231H18.8751L18.875 14.334Z" fill="#F6C358"/>
<path d="M17.1001 14.4699C18.0812 14.4699 18.8765 14.1356 18.8765 13.7232C18.8765 13.3108 18.0812 12.9764 17.1001 12.9764C16.119 12.9764 15.3237 13.3108 15.3237 13.7232C15.3237 14.1356 16.119 14.4699 17.1001 14.4699Z" fill="#FCD462"/>
<path d="M17.0989 13.1221C16.2427 13.1221 15.5487 13.3912 15.5487 13.7231C15.5487 14.055 16.2427 14.324 17.0989 14.324C17.955 14.324 18.649 14.055 18.649 13.7231C18.649 13.3912 17.955 13.1221 17.0989 13.1221ZM17.0989 14.2573C16.3379 14.2573 15.7209 14.0181 15.7209 13.7231C15.7209 13.4281 16.3379 13.189 17.0989 13.189C17.8598 13.189 18.4768 13.4282 18.4768 13.7231C18.4767 14.0181 17.8598 14.2573 17.0989 14.2573Z" fill="#DC8744"/>
<path d="M17.042 14.1382V14.0651C16.8059 14.0558 16.594 14.0194 16.4064 13.9559L16.595 13.8688C16.7396 13.9176 16.8885 13.9466 17.042 13.9559V13.7617C16.8473 13.7436 16.7047 13.7199 16.6143 13.6906C16.524 13.6612 16.4787 13.6176 16.4787 13.5599C16.4787 13.5021 16.5307 13.4549 16.6349 13.4181C16.7392 13.3814 16.8748 13.3614 17.042 13.3581V13.308H17.2072V13.359C17.3967 13.3644 17.5758 13.3894 17.7446 13.4342L17.5766 13.5263C17.4629 13.4949 17.3399 13.4756 17.2072 13.4682V13.6565H17.215C17.413 13.6746 17.5585 13.6989 17.6515 13.7296C17.7446 13.7603 17.7911 13.8049 17.7911 13.8633C17.7911 13.9217 17.7376 13.9693 17.6308 14.006C17.5241 14.0428 17.3829 14.0628 17.2072 14.0661V14.1382H17.042ZM16.8598 13.4917C16.8158 13.5067 16.7939 13.5254 16.7939 13.5478C16.7939 13.5702 16.8112 13.5878 16.8456 13.6009C16.8799 13.6139 16.9455 13.6264 17.042 13.6385V13.4652C16.9644 13.4679 16.9037 13.4767 16.8598 13.4917ZM17.4037 13.9309C17.4518 13.9155 17.476 13.8962 17.476 13.8728C17.476 13.8495 17.457 13.8309 17.4192 13.8172C17.3811 13.8036 17.3105 13.7907 17.2073 13.7787V13.9589C17.2899 13.9556 17.3553 13.9462 17.4037 13.9309Z" fill="#DC8744"/>
<path d="M13.9531 18.0473C15.0329 18.0473 15.9082 17.172 15.9082 16.0923C15.9082 15.0125 15.0329 14.1372 13.9531 14.1372C12.8734 14.1372 11.998 15.0125 11.998 16.0923C11.998 17.172 12.8734 18.0473 13.9531 18.0473Z" fill="#FCD462"/>
<path d="M13.953 14.3869C13.0107 14.3869 12.2466 15.1509 12.2466 16.0933C12.2466 17.0357 13.0106 17.7997 13.953 17.7997C14.8955 17.7997 15.6595 17.0358 15.6595 16.0933C15.6595 15.1509 14.8954 14.3869 13.953 14.3869ZM13.953 17.6101C13.1153 17.6101 12.4363 16.931 12.4363 16.0933C12.4363 15.2556 13.1154 14.5766 13.953 14.5766C14.7907 14.5766 15.4698 15.2557 15.4698 16.0933C15.4699 16.931 14.7907 17.6101 13.953 17.6101Z" fill="#DC8744"/>
<path d="M13.8905 17.2721V17.0645C13.6306 17.038 13.3973 16.9346 13.1909 16.7546L13.3985 16.5071C13.5577 16.6455 13.7216 16.728 13.8905 16.7546V16.2028C13.6762 16.1517 13.5193 16.0843 13.4198 16.0009C13.3203 15.9174 13.2705 15.7937 13.2705 15.6298C13.2705 15.4658 13.3277 15.3317 13.4425 15.2273C13.5573 15.123 13.7065 15.0662 13.8905 15.0567V14.9145H14.0724V15.0595C14.281 15.0748 14.4782 15.1458 14.664 15.2729L14.4791 15.5345C14.3539 15.4454 14.2185 15.3904 14.0724 15.3695V15.9041H14.081C14.299 15.9554 14.4592 16.0246 14.5615 16.1117C14.664 16.199 14.7151 16.3256 14.7151 16.4914C14.7151 16.6573 14.6563 16.7926 14.5388 16.8967C14.4212 17.001 14.2659 17.0578 14.0724 17.0674V17.272H13.8905V17.2721V17.2721ZM13.6899 15.4364C13.6415 15.479 13.6174 15.5321 13.6174 15.5957C13.6174 15.6592 13.6364 15.7094 13.6744 15.7464C13.7121 15.7834 13.7843 15.8189 13.8905 15.853V15.361C13.8051 15.3686 13.7382 15.3937 13.6899 15.4364ZM14.2886 16.6834C14.3416 16.6399 14.3682 16.5849 14.3682 16.5185C14.3682 16.4522 14.3474 16.3996 14.3057 16.3607C14.2639 16.3218 14.1861 16.2853 14.0724 16.2512V16.763C14.1634 16.7537 14.2354 16.7271 14.2886 16.6834Z" fill="#DC8744"/>
</svg>
