<svg width="20" height="20" viewBox="0 0 20 20" fill="none" xmlns="http://www.w3.org/2000/svg">
<path d="M13.75 8.54167C12.9459 8.54167 12.2917 9.1975 12.2917 10C12.2917 10.8025 12.945 11.4583 13.75 11.4583C14.5534 11.4583 15.2084 10.8033 15.2084 10C15.2084 9.19667 14.5534 8.54167 13.75 8.54167ZM13.75 10.625C13.405 10.625 13.125 10.345 13.125 10C13.125 9.65583 13.4059 9.375 13.75 9.375C14.0942 9.375 14.375 9.655 14.375 10C14.375 10.3442 14.095 10.625 13.75 10.625ZM10 8.54167C9.19502 8.54167 8.54169 9.1975 8.54169 10C8.54169 10.8025 9.19585 11.4583 10 11.4583C10.8042 11.4583 11.4584 10.8033 11.4584 10C11.4584 9.19667 10.805 8.54167 10 8.54167ZM10 10.625C9.65502 10.625 9.37502 10.345 9.37502 10C9.37502 9.65583 9.65585 9.375 10 9.375C10.3442 9.375 10.625 9.655 10.625 10C10.625 10.3442 10.345 10.625 10 10.625ZM6.25002 8.54167C5.44585 8.54167 4.79169 9.1975 4.79169 10C4.79169 10.8025 5.44585 11.4583 6.25002 11.4583C7.05335 11.4583 7.70835 10.8033 7.70835 10C7.70835 9.19667 7.05252 8.54167 6.25002 8.54167ZM6.25002 10.625C5.90502 10.625 5.62502 10.345 5.62502 10C5.62502 9.65583 5.90585 9.375 6.25002 9.375C6.59419 9.375 6.87502 9.655 6.87502 10C6.87502 10.3442 6.59502 10.625 6.25002 10.625Z" fill="black"/>
<path d="M10 18.9583C5.06002 18.9583 1.04169 14.94 1.04169 10C1.04169 5.06 5.06002 1.04167 10 1.04167C14.94 1.04167 18.9584 5.06 18.9584 10C18.9584 14.94 14.94 18.9583 10 18.9583ZM10 2.29167C5.75002 2.29167 2.29169 5.75 2.29169 10C2.29169 14.25 5.75002 17.7083 10 17.7083C14.25 17.7083 17.7084 14.25 17.7084 10C17.7084 5.75 14.25 2.29167 10 2.29167Z" fill="black"/>
</svg>
