<svg width="20" height="20" viewBox="0 0 20 20" fill="none" xmlns="http://www.w3.org/2000/svg">
<path d="M18.0808 13.7233C18.0642 13.71 16.2975 12.3567 16.3283 8.69833C16.345 6.58833 15.6517 4.71333 14.3725 3.41917C13.2267 2.25833 11.675 1.61667 10.0042 1.60833H9.99332C8.32332 1.61667 6.77166 2.25833 5.62499 3.42C4.34666 4.71417 3.65166 6.58833 3.66999 8.69833C3.70082 12.3067 1.98666 13.6708 1.91832 13.7233C1.70166 13.8842 1.61332 14.165 1.69749 14.4217C1.78249 14.6783 2.02249 14.8508 2.29082 14.8508H6.39082C6.47582 16.7758 8.05499 18.3175 9.99916 18.3175C11.9433 18.3175 13.5208 16.7758 13.605 14.8508H17.7067C17.975 14.8508 18.215 14.6792 18.2983 14.4225C18.3842 14.1667 18.2958 13.885 18.0792 13.7242L18.0808 13.7233ZM9.99999 17.065C8.74582 17.065 7.72499 16.0842 7.64332 14.85H12.3567C12.2733 16.0833 11.2542 17.0667 9.99999 17.0667V17.065ZM3.64999 13.6C4.26666 12.6567 4.93999 11.0767 4.91999 8.68667C4.90499 6.88667 5.45666 5.36833 6.51416 4.2975C7.42499 3.375 8.66416 2.86417 9.99999 2.85833C11.3358 2.865 12.5725 3.375 13.4833 4.29833C14.5417 5.36917 15.0942 6.88667 15.0792 8.6875C15.0592 11.0775 15.7333 12.6583 16.35 13.6008H3.64999V13.6Z" fill="black"/>
</svg>
