<svg width="20" height="20" viewBox="0 0 20 20" fill="none" xmlns="http://www.w3.org/2000/svg">
<path d="M18.0808 13.7233C18.0642 13.71 16.2975 12.3567 16.3283 8.69833C16.345 6.5875 15.6517 4.71333 14.3725 3.42C13.2267 2.25917 11.675 1.61667 10.0042 1.61H9.99332C8.32332 1.61667 6.77166 2.26 5.62499 3.42C4.34666 4.71417 3.65249 6.58833 3.66999 8.6975C3.70082 12.3075 1.98666 13.67 1.91832 13.7225C1.70166 13.8842 1.61332 14.1642 1.69749 14.4208C1.78166 14.6775 2.02249 14.85 2.29166 14.85H6.03666C6.11999 16.97 7.85999 18.6725 9.99999 18.6725C12.14 18.6725 13.8792 16.97 13.9633 14.85H17.7083C17.9783 14.85 18.2167 14.6767 18.3017 14.4208C18.3867 14.165 18.2975 13.8842 18.0808 13.7233ZM9.99999 17.0067C8.77832 17.0067 7.78582 16.0508 7.70332 14.85H12.2967C12.2133 16.05 11.2217 17.0058 9.99999 17.0058V17.0067Z" fill="black"/>
</svg>
