<svg width="20" height="20" viewBox="0 0 20 20" fill="none" xmlns="http://www.w3.org/2000/svg">
<path d="M9.99998 9.84667C11.1291 9.84667 12.3933 9.72167 13.2 8.8C13.8783 8.025 14.0983 6.82667 13.8716 5.14C13.555 2.78583 12.1075 1.38 9.99998 1.38C7.89248 1.38 6.44498 2.78583 6.12832 5.14167C5.90165 6.82667 6.12165 8.025 6.79998 8.8C7.60665 9.7225 8.87082 9.84667 9.99998 9.84667ZM7.36665 5.30667C7.50165 4.30667 8.02248 2.63 9.99998 2.63C11.9775 2.63 12.4983 4.3075 12.6333 5.30667C12.8058 6.59833 12.6808 7.49583 12.2583 7.9775C11.8791 8.41083 11.2033 8.59667 9.99998 8.59667C8.79665 8.59667 8.12082 8.41083 7.74165 7.9775C7.31915 7.49583 7.19415 6.5975 7.36665 5.30667ZM16.9 16.03C16.1691 13.0917 13.3316 11.0383 9.99998 11.0383C6.66832 11.0383 3.83082 13.0917 3.09998 16.03C2.95665 16.6067 3.07665 17.1967 3.42915 17.6467C3.76915 18.08 4.29582 18.33 4.87332 18.33H15.1266C15.7041 18.33 16.2308 18.08 16.5708 17.6467C16.9241 17.1967 17.0433 16.6075 16.8991 16.03H16.9ZM15.5866 16.8767C15.4816 17.01 15.3233 17.0817 15.1266 17.0817H4.87332C4.67748 17.0817 4.51832 17.0108 4.41332 16.8767C4.29915 16.7317 4.26332 16.5333 4.31332 16.3317C4.90498 13.9525 7.24415 12.29 9.99998 12.29C12.7558 12.29 15.095 13.9517 15.6866 16.3317C15.7366 16.5333 15.7008 16.7317 15.5866 16.8767Z" fill="black"/>
</svg>
